<svg width="20" height="20" fill="none" xmlns="http://www.w3.org/2000/svg"><path d="M17.07 0H2.93A2.933 2.933 0 000 2.93v14.14A2.933 2.933 0 002.93 20h14.14A2.933 2.933 0 0020 17.07V2.93A2.933 2.933 0 0017.07 0zm1.758 17.07a1.76 1.76 0 01-1.758 1.758H2.93a1.76 1.76 0 01-1.758-1.758V2.93c0-.97.788-1.758 1.758-1.758h14.14c.97 0 1.758.788 1.758 1.758v14.14z" fill="#fff"/><path d="M9.414 8.242A2.346 2.346 0 007.07 5.898H3.555v8.204H7.07a2.346 2.346 0 002.344-2.344c0-.7-.308-1.328-.796-1.758.488-.43.796-1.058.796-1.758zm-1.172 3.516c0 .646-.525 1.172-1.172 1.172H4.727v-2.344H7.07c.647 0 1.172.526 1.172 1.172zM4.727 9.414V7.07H7.07a1.173 1.173 0 010 2.344H4.727zM13.516 8.242a2.933 2.933 0 00-2.93 2.93 2.933 2.933 0 002.93 2.93 2.94 2.94 0 002.537-1.465l-1.014-.587c-.314.543-.898.88-1.523.88a1.76 1.76 0 01-1.658-1.172h4.587v-.586a2.933 2.933 0 00-2.93-2.93zm-1.658 2.344a1.76 1.76 0 011.658-1.172c.764 0 1.415.49 1.657 1.172h-3.315zM11.172 5.898h4.687V7.07h-4.687V5.898z" fill="#fff"/></svg>