<svg width="512" height="512" xmlns="http://www.w3.org/2000/svg"><path d="M217.136 146.134c-.035.001-.15.018-.24.02-.877.02-3.997.095-5.7.48-1.903.431-3.805 1.018-5.48 2.02-2.504 1.5-4.616 3.642-6.56 5.82-1.621 1.819-2.862 3.944-4.2 5.98-.537.819-1.231 1.584-1.52 2.52-.04.13-.093.245-.12.38-31.256.089-62.513.31-93.76 1.02-18.762.627-37.167 10.053-47.44 25.98-4.401 5.135-7.214 11.199-8.48 17.76-7.318 19.753-4.19 41.284-4.86 61.9-.621 16.44 2.832 32.975 10.28 47.6 8.66 13.65 21.607 25.827 38.16 28.3 23.191 4.822 47.076 2.084 70.58 2.88 11.854-.026 23.706-.018 35.56-.02.02.085.055.158.08.24.289.936.983 1.702 1.52 2.52 1.338 2.037 2.579 4.162 4.2 5.98 1.944 2.179 4.056 4.32 6.56 5.82 1.675 1.003 3.577 1.59 5.48 2.02 1.703.386 4.823.461 5.7.48.396.081.82.011 1.1-.2.28-.21.369-.418.44-.9.072-.481 0-.689-.32-1.9-.319-1.21-1.082-3.32-1.9-5.24-.818-1.92-2.175-4.556-3.08-6.22a52.896 52.896 0 00-1.5-2.6c15.422.007 30.839.007 46.26.02.055.072.112.148.18.22.356.376.873.873 1.86 1.22.988.348 1.037.25 4.04.4 3.004.15 10.612.097 12.84-.04 2.229-.137 2.626-.172 3.72-.6.885-.345 1.545-.512 1.68-1.18 23.496.006 47.005-.02 70.5-.12.864.293 1.06.218 3.92.36 3.003.15 10.632.097 12.86-.04 1.838-.113 2.436-.166 3.2-.42 19.413-.121 38.83-.305 58.24-.58 13.575.032 27.064-8.429 31.62-21.48 11.638-28.71 11.429-60.54 10.24-91.04-1.52-19.913-4.089-40.864-14.88-58.06-9.668-13.695-28.3-14.1-43.48-14.04-14.294-.15-28.584-.208-42.88-.24a29.23 29.23 0 00-2.06-.18c-2.228-.136-9.857-.19-12.86-.04-1.97.099-2.633.098-3.16.18-18.306-.005-36.613.04-54.92.04-5.439.03-10.88.043-16.32.06-.114-.705-.796-.866-1.7-1.22-1.094-.428-1.491-.463-3.72-.6-2.228-.137-9.836-.19-12.84-.04-3.003.15-3.052.053-4.04.4a4.407 4.407 0 00-1.86 1.22 2.353 2.353 0 00-.24.28l-46.26.06c.471-.757.956-1.587 1.56-2.7.905-1.663 2.262-4.3 3.08-6.22.818-1.92 1.581-4.029 1.9-5.24.32-1.21.392-1.418.32-1.9-.071-.481-.16-.689-.44-.9-.191-.144-.451-.21-.72-.22a1.634 1.634 0 00-.14 0zm52.58 17.08c.57-.006 1.217-.006 1.84.02-.887.002-1.772-.002-2.66 0 .283-.01.572-.017.82-.02zm161.62 7.32c3.984-.1 8.476.497 10.9 1.74 5.937 3.043 9.498 7.731 10.88 14.34.452 2.158 1.527 5.292 2.38 6.98 2.539 5.022 4.875 12.282 4.66 14.46l-.2 2.02-1.98-1.86c-1.088-1.02-2.95-3.952-4.12-6.52-6.772-14.86-15.815-23.517-29.6-28.36-1.199-.421-1.19-.467-.06-1.3 1.259-.926 4.042-1.422 7.14-1.5zm-214.34 1.26c1.29-.008 2.763-.003 4.4 0 10.918.021 29.102.262 48.16.66l13.6.28 5.3 8.32c2.912 4.567 5.377 8.74 5.48 9.28.186.969.136.967-4.1.9-2.36-.037-8.515-.213-13.66-.4-14.533-.528-36.943-2.857-51.1-5.3l-5.66-.96-1.82-2.84c-1.002-1.555-2.866-4.274-4.14-6.06-1.273-1.785-2.387-3.432-2.48-3.66-.046-.113 2.154-.195 6.02-.22zm-127.58.46c1.04 0 2.22-.006 3.56 0 14.446.06 17.026 1.17 11.5 4.9-3.192 2.156-23.743 14.639-32.06 19.48-7.071 4.117-9.857 6.488-13.02 11.08-1.273 1.849-3.206 3.772-4.32 4.3-2.067.981-5.291 1.269-6.02.54-.225-.225-.42-2.034-.42-4.02 0-3.855 1.172-6.737 5.4-13.4 3.48-5.482 10.25-13.165 14.26-16.18 2.052-1.542 6.01-3.7 8.8-4.78 4.408-1.705 5.044-1.92 12.32-1.92zm217.5.82c1.65-.004 4.244.06 8.26.16 33.708.849 55.632 1.594 55.9 1.88.451.48 1.7 8.213 1.7 10.54 0 3.626.284 3.523-12.22 4.18-8.366.44-40.073 1.428-47.62 1.48-.734.005-1.54-1.452-4.66-8.4-2.073-4.619-3.915-8.751-4.08-9.18-.177-.462-.028-.653 2.72-.66zm84.34 4.84c.728-.023 1.63.029 2.78.12 4.51.359 15.212 1.877 15.8 2.24 1.264.781-5.239 3.088-13.2 4.7-5.925 1.2-6.613 1.27-8.08.68-1.362-.548-1.631-2.195-.78-4.76.725-2.18 1.298-2.909 3.48-2.98zm-238.72 3.74c1.925 0 55.013 11.673 64.22 14.12 6.208 1.65 17.615 5.505 25.34 8.56 17.578 6.953 26.57 9.32 35.44 9.32 6.752 0 7.142.18 12.68 6.1l5.7 6.1v60.5l-5.56 5.94-5.54 5.92-10.76.64c-8.486.496-13.218 1.589-22.44 5.18-22.98 8.95-37.944 13.314-65.84 19.26-15.566 3.319-29.535 6.318-31.04 6.66-2.203.502-3.187-.27-5.08-4-2.909-5.734-9.306-25.696-11.14-34.78-4.044-20.033-3.727-55.656.64-73.22 4.073-16.379 11.417-36.3 13.38-36.3zm285.2 6.3c3.395-.166 4.424 2.767 8.12 9.7 10.055 18.859 13.1 35.1 12.16 65-.736 23.458-2.731 32.473-10.86 49-7.082 14.402-7.268 14.5-17.72 9.52-4.737-2.257-11.808-5.3-15.7-6.76-3.891-1.459-7.08-2.875-7.08-3.14 0-.264 1.93-4.293 4.28-8.96 7.377-14.647 9.795-26.291 9.72-46.82-.074-20.549-2.244-30.755-9.68-45.52-2.46-4.884-4.292-9.025-4.08-9.2.213-.175 7.532-3.43 16.26-7.24 7.88-3.44 11.94-5.45 14.58-5.58zm-387.22 110.9c.489-.042 1.093.042 1.84.22 3.66.875 4.194 1.296 7.28 5.54 3.663 5.035 5.75 6.702 14.84 11.96 13.472 7.793 31.59 19.145 32.24 20.2 1.395 2.262-.265 2.64-12.72 2.78-10.283.116-12.234-.022-15.04-1.04-9.38-3.403-16.845-9.753-23.88-20.32-5.177-7.777-6.403-10.62-6.42-14.86-.012-3.107.396-4.352 1.86-4.48zm409.44 3.22l.18 1.84c.218 2.133-2.37 10.221-4.56 14.22-.817 1.494-1.902 4.672-2.4 7.06-2.12 10.167-9.973 16.474-20.26 16.3-2.053-.034-4.573-.254-5.6-.5-1.026-.246-2.402-.752-3.06-1.12-1.119-.626-1.075-.707.64-1.4 7.987-3.224 12.381-5.899 16.6-10.06 5.037-4.966 8.204-9.574 12.3-17.94 1.556-3.177 3.565-6.376 4.48-7.1l1.68-1.3zm-147.92 18.66l8.72.1c10.586.12 31.4.85 42.66 1.48 6.71.376 8.359.591 8.8 1.16.75.968.671 4.788-.22 9.44l-.76 3.9-1.96.3c-1.899.288-24.573.96-51.92 1.54-9.474.201-13.398.149-13.28-.18.093-.256 1.92-4.351 4.06-9.1l3.9-8.64zm-25.76.18c4.695-.008 7.74.18 7.74.62 0 .57-9.583 16.057-10.62 17.16-.51.544-11.651.836-60.18 1.56l-12.7.2 1.78-2.46c.986-1.35 2.976-4.28 4.42-6.5 1.602-2.46 2.99-4.117 3.54-4.24 4.929-1.101 23.755-3.611 35.48-4.74 10.338-.995 22.716-1.586 30.54-1.6zm104.58 5.28c1.81.026 4.377.467 7.88 1.26 8.775 1.989 13.206 3.948 10.28 4.56-2.82.59-11.11 1.606-15.22 1.86l-4.42.26-.88-1.44c-.482-.793-1.002-2.207-1.16-3.14-.394-2.333.505-3.402 3.52-3.36z" style="marker:none" color="#000" fill="#222" overflow="visible"/></svg>