<svg width="20" height="20" fill="none" xmlns="http://www.w3.org/2000/svg"><path d="M10.04 20A9.956 9.956 0 0020 10.04C20 4.552 15.563 0 10.04 0 4.537 0 0 4.535 0 10.04 0 15.567 4.559 20 10.04 20zm-5.142-2.804c.726-2.767 3.313-5.019 6.622-6.016a27.403 27.403 0 011.4 7.163 8.872 8.872 0 01-8.022-1.147zm9.164.656a28.373 28.373 0 00-1.392-6.961 13.366 13.366 0 016.097.185 8.808 8.808 0 01-4.705 6.776zm-2.461-9.674c1.988-.74 4.096-1.97 5.242-3.745a8.87 8.87 0 011.983 5.448 14.638 14.638 0 00-6.558-.108 27.464 27.464 0 00-.668-1.595zm4.412-4.637c-.952 1.72-3.082 2.905-4.923 3.577a25.7 25.7 0 00-3.765-5.52 8.834 8.834 0 012.714-.426c2.305 0 4.404.9 5.974 2.37zM6.165 2.064a24.52 24.52 0 013.787 5.424c-2.57.738-5.584.99-8.57.632a8.901 8.901 0 014.783-6.056zM1.205 9.28c3.2.39 6.465.114 9.268-.724.23.497.444 1.002.643 1.515-3.22.976-6.137 3.175-7.2 6.32A8.729 8.729 0 011.205 9.28z" fill="#fff"/></svg>