<svg width="30" height="30" fill="none" xmlns="http://www.w3.org/2000/svg"><path d="M9.1 3.349c-3.019 0-5.475 2.604-5.475 5.805 0 3.202 2.456 5.806 5.476 5.806s5.476-2.604 5.476-5.806c0-3.2-2.457-5.805-5.476-5.805zM21.55 4.179h-.037c-1.267.01-2.45.545-3.333 1.506a5.098 5.098 0 00-1.326 3.508 5.099 5.099 0 001.384 3.484c.889.937 2.067 1.452 3.32 1.452h.037c1.268-.01 2.451-.546 3.333-1.507a5.098 5.098 0 001.327-3.507c-.023-2.73-2.13-4.936-4.705-4.936zM21.78 15.08h-.455c-2.117 0-4.05.804-5.509 2.124a10.545 10.545 0 014.128 7.843h10.054v-1.75c0-4.531-3.686-8.218-8.218-8.218zM18.185 25.047a8.815 8.815 0 00-3.541-6.526 8.786 8.786 0 00-5.269-1.745h-.547A8.827 8.827 0 000 25.604v1.048h18.202v-1.048a8.77 8.77 0 00-.017-.556z" fill="#557180"/></svg>