<svg width="20" height="20" fill="none" xmlns="http://www.w3.org/2000/svg"><g clip-path="url(#clip0_202_119)"><path d="M17.802 11.957l-.01-.01c-.171-.157-.694-.667-.87-.889-.208-.278-.16-.46-.005-.732.196-.344.59-.873 1.005-1.432 1.332-1.791 2.192-3.031 2.015-3.912l-.096-.47-4.918.002c-.017.046-.274 1.174-1.357 3.094-.786 1.392-1.3 1.829-1.482 1.906l-.028-.008c-.06-.073-.162-.27-.205-.777-.044-.532-.005-1.175.033-1.798.045-.73.083-1.36-.009-1.81l-.15-.735c-.18-.029-.84-.284-2.682-.303-1.594-.016-2.062.214-2.292.417l-.76.671.96.323c.367.124.488.266.588.97.065.459.099 1.23.028 1.919-.1.987-.342 1.17-.355 1.18-.041-.014-.395-.168-1.008-1.465-.425-.899-.798-1.963-1.07-2.74-.313-.889-.257-.7-.415-1.12H-.039l.308.797c1.284 3.324 2.461 5.92 4.038 7.784 1.741 2.06 3.905 3.138 6.82 3.138h.587v-.586c0-.548.045-.942.142-1.241a3.07 3.07 0 01.221-.491c.123-.233.244-.332.31-.347.059-.014.163.03.28.117.332.248.597.574.876.92.404.498.822 1.013 1.484 1.35.362.185 1.025.278 1.39.278h3.544l-.025-.61c-.038-.912-.756-2.053-2.134-3.39zm-1.362 2.828h-.01c-.25.004-.731-.078-.871-.15-.44-.224-.748-.604-1.105-1.044-.313-.386-.636-.786-1.087-1.122-.365-.272-.696-.351-.958-.351-.105 0-.2.012-.28.03-.305.07-.742.289-1.088.945-.098.187-.21.398-.3.674-.093.29-.152.611-.18 1.002-2.197-.125-3.911-.994-5.36-2.707-1.346-1.593-2.405-3.82-3.527-6.652h2.235l.119.337c.293.837.696 1.985 1.17 2.963.679 1.401 1.299 2.026 2.01 2.026.355 0 .673-.15.92-.435.353-.406.558-1.077.627-2.05.054-.766.004-1.53-.056-1.951-.05-.347-.12-.71-.29-1.036.728-.033 1.704.019 2.321.108.056.305.02.906-.016 1.488-.085 1.405-.174 2.854.57 3.532.13.12.27.184.273.186l.379.117c.146-.046.992.384 2.593-2.411.513-.896.991-1.928 1.248-2.602.597-.001 2.63.001 2.868.002-.338.744-1.14 1.806-1.663 2.51-.457.615-.852 1.146-1.083 1.552-.43.755-.358 1.428.09 2.022l.007.01c.25.317.867.906.995 1.025.928.9 1.375 1.547 1.587 1.982H16.44z" fill="#fff"/></g><defs><clipPath id="clip0_202_119"><path fill="#fff" d="M0 0h20v19.961H0z"/></clipPath></defs></svg>