<svg width="20" height="20" fill="none" xmlns="http://www.w3.org/2000/svg"><g clip-path="url(#clip0_202_421)" fill="#fff"><path d="M4.837 18.573a9.926 9.926 0 005.128 1.42c5.5 0 10.035-4.489 10.035-9.997C20 4.496 15.472 0 9.965 0 4.474 0 .007 4.484.007 9.996c0 1.84.49 3.62 1.42 5.167L0 20l4.837-1.427zM1.18 9.996c0-4.866 3.941-8.825 8.786-8.825 4.887 0 8.864 3.96 8.864 8.825 0 4.867-3.977 8.825-8.864 8.825a8.755 8.755 0 01-4.726-1.378l-.226-.144-3.28.968.967-3.28-.143-.226a8.824 8.824 0 01-1.378-4.765z"/><path d="M4.87 8.154c.193 1.016.767 2.97 2.44 4.643 1.671 1.672 3.626 2.246 4.642 2.44 1.164.221 2.871.255 3.706-.58l.465-.465c.235-.235.364-.547.364-.88 0-.332-.13-.644-.364-.879l-1.86-1.86a1.236 1.236 0 00-.88-.364c-.332 0-.644.129-.88.364l-.464.465c-.284.284-.82.285-1.107.003L9.076 9.108l-.008-.009a.73.73 0 010-1.032l.465-.465a1.243 1.243 0 000-1.759l-1.86-1.86a1.245 1.245 0 00-1.76 0l-.464.465c-.666.666-.888 2.086-.58 3.706zm1.407-2.878c.488-.477.462-.486.516-.486.019 0 .037.007.051.021 1.96 1.971 1.882 1.855 1.882 1.912a.07.07 0 01-.021.05l-.465.466a1.9 1.9 0 00-.005 2.684l1.857 1.935.008.008c.74.741 2.024.743 2.767 0l.465-.465a.072.072 0 01.102 0c1.96 1.971 1.882 1.855 1.882 1.912a.07.07 0 01-.021.05l-.466.466c-.318.319-1.334.51-2.658.257-.884-.168-2.583-.667-4.033-2.118-1.45-1.45-1.95-3.15-2.118-4.033-.252-1.325-.062-2.34.257-2.659z"/></g><defs><clipPath id="clip0_202_421"><path fill="#fff" d="M0 0h20v20H0z"/></clipPath></defs></svg>